<svg xmlns="http://www.w3.org/2000/svg" version="1.1" xmlns:xlink="http://www.w3.org/1999/xlink" xmlns:svgjs="http://svgjs.dev/svgjs" width="100%" height="100%" viewBox="0 0 1000 600"><rect width="1000" height="600" x="0" y="0" fill="#00214d"/><g><circle r="166.66666666666666" cx="430.0396525065104" cy="452.2618597609003" fill="#ffffff" transform="matrix(0.4746120043002443,0,0,0.47461200430024436,0,85.35106175274495)"/><path d="M409.78962873761355 453.26186786830567L409.78962873761355 527.2618678683057L388.7896287376135 527.2618678683057L388.7896287376135 398.26186786830567L385.7896287376135 377.26186786830567L474.28962873761355 377.26186786830567L472.28962873761355 393.26186786830567L407.78962873761355 393.26186786830567L409.78962873761355 412.26186786830567L409.78962873761355 438.76186786830567L463.78962873761355 438.76186786830567L463.78962873761355 453.26186786830567L409.78962873761355 453.26186786830567Z " fill="  color: rgb(9, 43, 90);" transform="matrix(0.4746120043002443,0,0,0.47461200430024436,0,85.35106175274495)"/><path d="M697.1824864081273 440.11901138862345L697.1824864081273 492.97615531261283L682.1824861053734 492.97615531261283L682.1824861053734 400.83329630998264L680.0396289192657 385.83329600722885L743.2539159094423 385.83329600722885L741.8253444520371 397.2618676664698L695.753914950722 397.2618676664698L697.1824864081273 410.83329651181845L697.1824864081273 429.7618683224363L735.7539157580654 429.7618683224363L735.7539157580654 440.11901138862345L697.1824864081273 440.11901138862345ZM787.9761390343192 425.2578999775618L787.9761390343192 425.2578999775618Q785.1189961195091 425.2578999775618 782.3213770154241 426.4086936515826Q779.5435991815807 427.5396460553617 776.9642340501548 429.484090539052Q774.4047101889706 431.40869375250054 772.103122840929 433.9682176136847Q769.8213767631291 436.5475827451106 767.8967735496806 439.40472565992087L767.8967735496806 439.40472565992087L767.8967735496806 492.97615531261283L754.325344704332 492.97615531261283L754.325344704332 414.4047251553313L767.8967735496806 412.9761536979262L767.8967735496806 429.04758259373375L775.0396308367062 416.54758234143895Q775.972170538068 415.9721855044285 777.3610594549896 415.3769473971764Q778.7499483719112 414.76186801968254 780.5356626936675 414.3055188041226Q782.3213770154241 413.8293283183209 784.365027850323 413.5118679944531Q786.3888374149803 413.1944076705853 788.531694601088 413.1944076705853L788.531694601088 413.1944076705853Q791.7459803802494 413.1944076705853 793.9285201068406 413.76980450759567Q796.1110598334317 414.3253600743643 797.1824884264856 414.8412331006495L797.1824884264856 414.8412331006495L796.468202697783 426.68647143496696Q795.3967741047293 426.32932857061564 793.2539169186216 425.7936142740888Q791.1110597325139 425.2578999775618 787.9761390343192 425.2578999775618ZM861.4682040097159 480.1190121959668L862.8967754671212 492.97615531261283L847.8967751643672 492.97615531261283L847.8967751643672 481.4086947616797L841.19042582266 489.40472666910006Q839.9602670676722 490.33726637046175 838.392806718575 491.1904409908565Q836.8253463694778 492.0436156112512 835.2182034798968 492.71821879947026Q833.6110605903161 493.41266325793106 832.0039177007354 493.7896473925241Q830.3967748111547 494.1864727973589 829.0475684347164 494.1864727973589L829.0475684347164 494.1864727973589Q823.6904254694473 494.1864727973589 818.789631719738 492.5198060970529Q813.8888379700288 490.83329812650516 810.2182029753073 487.5793298068602Q806.5475679805859 484.3253614872152 804.3650282539948 479.5039328184729Q802.1824885274034 474.6825041497306 802.1824885274034 468.41266275334146L802.1824885274034 468.41266275334146Q802.1824885274034 461.7658372223593 804.861060010038 456.8650434726501Q807.5396314926727 451.98409099318263 811.7261395136793 448.7301226735376Q815.8928062644443 445.47615435389264 821.0316952570545 443.8690114643119Q826.1904255199063 442.2618685747311 831.1110605398571 442.2618685747311L831.1110605398571 442.2618685747311Q835.1785209394134 442.2618685747311 838.2936003673663 442.69837652004935Q841.3888385250773 443.11504319512585 843.531695711185 443.6904400321362L843.531695711185 443.6904400321362Q846.031695761644 444.32536067987184 847.8967751643672 445.1190114895413L847.8967751643672 445.1190114895413L847.8967751643672 442.6190114390824Q847.8967751643672 438.412662147834 847.4007434083239 435.03964620673855Q846.9047116522804 431.6864715358849 845.357092573425 429.36504291760156Q843.8293147648112 427.0436142993182 840.9324893095175 425.83329681457224Q838.0356638542237 424.6229793298262 833.2539177259648 424.6229793298262L833.2539177259648 424.6229793298262Q829.4047112990677 424.6229793298262 825.833282655555 425.15869362635317Q822.261854012042 425.6944079228801 819.4642349079572 426.32932857061564L819.4642349079572 426.32932857061564Q816.1904253180703 427.1229793802852 813.3928062139853 427.9761540006799L813.3928062139853 427.9761540006799L808.2539172213753 418.4126617441623Q811.3888379195698 416.9840902867572 815.3967745084008 415.8332966127364L815.3967745084008 415.8332966127364Q818.8293142602215 414.8412331006495 823.5316953075132 414.0078997504965Q828.253917625047 413.1944076705853 833.9682034546674 413.1944076705853L833.9682034546674 413.1944076705853Q842.1824893347468 413.1944076705853 847.5396323000161 415.39678866741815Q852.8967752652852 417.6190109344928 855.9721721527546 421.6269475233238Q859.0475690402241 425.6150428419131 860.25788652497 431.2301223203249Q861.4682040097159 436.82536052849497 861.4682040097159 443.6904400321362L861.4682040097159 443.6904400321362L861.4682040097159 480.1190121959668ZM847.8967751643672 473.4126628542594L847.8967751643672 454.90075771871807Q845.8928068699518 454.6229799353338 843.6110607921519 454.32536088170764L843.6110607921519 454.32536088170764Q841.6864575787033 454.1269481792903 839.1864575282445 453.9086942066312Q836.6864574777856 453.6904402339721 833.9682034546674 453.6904402339721L833.9682034546674 453.6904402339721Q829.9602668658363 453.6904402339721 826.6467747354661 454.48409104364157Q823.333282605096 455.25790058306933 820.8928063653623 457.0039323643423Q818.4721713958702 458.7698054158569 817.1031237491904 461.5475832497002Q815.7539173727521 464.3253610835435 815.7539173727521 468.33329767237456L815.7539173727521 468.33329767237456Q815.7539173727521 471.54758345153607 816.825345965806 474.18647239368715Q817.8967745588598 476.8253613358383 819.7618539615833 478.76980581952864Q821.6070920940647 480.6944090329772 824.1467746850071 481.72615508554753Q826.6864572759496 482.7579011381179 829.6031240014852 482.7579011381179L829.6031240014852 482.7579011381179Q830.9721716481649 482.7579011381179 832.4999494567787 482.36107573328314Q834.0475685356344 481.98409159869016 835.5753463442481 481.3293296807128Q837.1031241528619 480.6944090329772 838.6507432317176 479.8412344125825Q840.1785210403314 478.96821852194597 841.5475686870113 478.11504390155125L841.5475686870113 478.11504390155125Q844.7618544661727 476.05155179641054 847.8967751643672 473.4126628542594L847.8967751643672 473.4126628542594ZM900.0396333596543 432.6983763182135L900.0396333596543 492.97615531261283L886.4682045143056 492.97615531261283L886.4682045143056 414.4047251553313L900.0396333596543 412.9761536979262L900.0396333596543 426.05155078723135L904.4047128128366 418.4126617441623Q905.6745541083078 417.5396458535258 907.6785224027233 416.6269474224059Q909.6824906971387 415.69440772104423 912.1428082071143 414.9404394518582Q914.6031257170898 414.18647118267216 917.4602686318999 413.6904394266287Q920.3174115467102 413.1944076705853 923.2539195424874 413.1944076705853L923.2539195424874 413.1944076705853Q928.8888402911409 413.1944076705853 932.7975705287633 415.01980453282516Q936.6864594961439 416.82536012482325 939.107094465636 420.25789987664393Q941.5475707053697 423.69043962846456 942.57931675794 428.5515508376903Q943.6110628105105 433.41266204691607 943.6110628105105 439.40472565992087L943.6110628105105 439.40472565992087L943.6110628105105 492.97615531261283L930.0396339651618 492.97615531261283L930.0396339651618 439.40472565992087Q930.0396339651618 435.55551923302374 929.5039196686348 432.75790012893873Q928.9682053721078 429.98012229509544 927.6388402659115 428.15472543285557Q926.3293164299569 426.32932857061564 924.1070941628823 425.4761539502209Q921.9047131660493 424.6229793298262 918.6110623059208 424.6229793298262L918.6110623059208 424.6229793298262Q916.1904273364287 424.6229793298262 913.6904272859699 425.3769475990123Q911.1904272355109 426.11107459795653 908.7896335362607 427.30155081246085Q906.3888398370104 428.4721857567234 904.146776299694 429.9007572141285Q901.9047127623776 431.3293286715336 900.0396333596543 432.6983763182135L900.0396333596543 432.6983763182135ZM985.7539208039614 492.97615531261283L972.1824919586127 492.97615531261283L972.1824919586127 391.54758183684936L970.7539205012076 378.6904387202033L985.7539208039614 377.26186726279815L985.7539208039614 443.6904400321362L1012.1824927659561 414.4047251553313L1028.531699445148 414.4047251553313L1002.1031274831535 443.6904400321362L990.1190002571436 448.1944083770107L1002.1031274831535 452.4801227492261L1036.4682075418432 492.97615531261283L1019.603127836366 492.97615531261283L985.7539208039614 453.1944084779286L985.7539208039614 492.97615531261283ZM1064.325350961243 377.26186726279815L1064.325350961243 466.1110754052999Q1064.325350961243 470.8332977228335 1064.86106525777 474.00790096151155Q1065.396779554297 477.18250420018956 1066.4285256068672 479.14678995412163Q1067.4602716594375 481.11107570805365 1069.007890738293 481.94440905820665Q1070.535668546907 482.7579011381179 1072.5396368413224 482.7579011381179L1072.5396368413224 482.7579011381179Q1074.1070971904198 482.7579011381179 1075.3967797561327 482.57932970594226Q1076.6864623218455 482.40075827376666 1077.6190020232073 482.1229804903823L1077.6190020232073 482.1229804903823Q1078.6904306162612 481.8253614367562 1079.5436052366558 481.46821857240496L1079.5436052366558 481.46821857240496L1084.464240256607 490.11901239780263Q1083.8888434195965 490.694409234813 1082.6388433943669 491.36901242303213Q1081.3888433691375 492.0436156112512 1079.682494128348 492.69837752922854Q1077.9761448875586 493.33329817696415 1075.7936051609674 493.7698061222824Q1073.6110654343763 494.1864727973589 1071.1110653839173 494.1864727973589L1071.1110653839173 494.1864727973589Q1064.6824938255943 494.1864727973589 1060.6745572367633 491.8253616385921Q1056.686461918174 489.484091750067 1054.4642396510994 485.39679008026906Q1052.2618586542665 481.3293296807128 1051.5078903850804 475.9325041749601Q1050.7539221158943 470.55551993944914 1050.7539221158943 464.40472616451046L1050.7539221158943 464.40472616451046L1050.7539221158943 392.97615329425446L1049.3253506584892 378.6904387202033L1064.325350961243 377.26186726279815ZM1125.7539236296632 483.5515519477874L1129.464241164868 466.98409129593637L1148.690432029112 414.4047251553313L1161.5475751457582 413.1944076705853L1131.964241215327 494.1864727973589Q1129.7618602184941 500.1983776806054 1127.1428125465848 506.1110762126433Q1124.5436061449172 512.0436160149229 1121.2499552847887 516.726155791973Q1117.976145694902 521.408695569023 1114.0078916465543 524.3253622945585Q1110.0396375982068 527.2618702903358 1105.178526388981 527.2618702903358L1105.178526388981 527.2618702903358Q1101.547573934743 527.2618702903358 1098.0356691019556 525.793616292447Q1094.5436055394096 524.3253622945585 1091.6070975436323 521.7658384333744L1091.6070975436323 521.7658384333744L1096.8253516172094 514.1269493903053Q1098.0356691019556 514.9801240107 1099.6031294510528 515.6944097394025Q1101.1904310703917 516.4086954681052 1102.8967803111811 516.4086954681052L1102.8967803111811 516.4086954681052Q1105.257891469948 516.4086954681052 1107.460272466781 514.5832986058653Q1109.6824947338555 512.7579017436254 1111.7261455687546 509.9007588288152Q1113.7499551334117 507.04361591400493 1115.4959869146846 503.47218727049216Q1117.2618599661994 499.9007586269793 1118.6904314236044 496.32932998346655L1118.6904314236044 496.32932998346655L1088.8888435205145 414.4047251553313L1102.460272365863 413.1944076705853L1122.0436060944583 466.98409129593637L1125.7539236296632 483.5515519477874ZM1192.8967821277038 432.6983763182135L1192.8967821277038 492.97615531261283L1179.325353282355 492.97615531261283L1179.325353282355 414.4047251553313L1192.8967821277038 412.9761536979262L1192.8967821277038 426.05155078723135L1197.261861580886 418.4126617441623Q1198.5317028763573 417.5396458535258 1200.5356711707727 416.6269474224059Q1202.5396394651884 415.69440772104423 1204.9999569751637 414.9404394518582Q1207.4602744851393 414.18647118267216 1210.3174173999496 413.6904394266287Q1213.1745603147597 413.1944076705853 1216.111068310537 413.1944076705853L1216.111068310537 413.1944076705853Q1221.7459890591904 413.1944076705853 1225.6547192968128 415.01980453282516Q1229.5436082641934 416.82536012482325 1231.9642432336855 420.25789987664393Q1234.4047194734192 423.69043962846456 1235.4364655259897 428.5515508376903Q1236.46821157856 433.41266204691607 1236.46821157856 439.40472565992087L1236.46821157856 439.40472565992087L1236.46821157856 492.97615531261283L1222.8967827332112 492.97615531261283L1222.8967827332112 439.40472565992087Q1222.8967827332112 435.55551923302374 1222.3610684366843 432.75790012893873Q1221.8253541401575 429.98012229509544 1220.495989033961 428.15472543285557Q1219.1864651980063 426.32932857061564 1216.9642429309317 425.4761539502209Q1214.7618619340988 424.6229793298262 1211.4682110739705 424.6229793298262L1211.4682110739705 424.6229793298262Q1209.0475761044784 424.6229793298262 1206.5475760540194 425.3769475990123Q1204.0475760035604 426.11107459795653 1201.6467823043101 427.30155081246085Q1199.24598860506 428.4721857567234 1197.0039250677435 429.9007572141285Q1194.761861530427 431.3293286715336 1192.8967821277038 432.6983763182135L1192.8967821277038 432.6983763182135ZM1337.8967850543233 449.1269480783724L1329.3253563098926 449.1269480783724L1329.3253563098926 492.97615531261283L1314.3253560071391 492.97615531261283L1314.3253560071391 400.83329630998264L1311.82535595668 386.54758173593143Q1314.186467115447 386.2698039525471 1317.499959245817 385.97218489892106Q1320.833292646429 385.6944071155367 1324.4245625601836 385.4761531428776Q1328.0356737441798 385.2578991702185 1331.6864674686597 385.11901027852633Q1335.3174199228977 384.9801213868341 1338.3928168103669 384.9801213868341L1338.3928168103669 384.9801213868341Q1347.4007535001158 384.9801213868341 1354.8213885705259 386.86504205979924Q1362.2618649111776 388.7698040030061 1367.5396427954797 392.480121538211Q1372.817420679782 396.190439073416 1375.753928675559 401.7261534708608Q1378.6904366713363 407.26186786830567 1378.6904366713363 414.48409023629824L1378.6904366713363 414.48409023629824Q1378.6904366713363 421.9840903876751 1376.369008053053 427.69837621729556Q1374.0475794347697 433.41266204691607 1369.8213888732796 437.4404399059888Q1365.6150395820312 441.4682177650616 1359.7817061309602 444.00790035600403Q1353.968213950131 446.5475829469465 1347.0436106357645 447.75790043169246L1347.0436106357645 447.75790043169246L1357.1824997292927 450.6150433465027L1388.8293257648645 492.97615531261283L1372.8967857607488 492.97615531261283L1341.2499597251772 450.4761544548105Q1340.4761501857495 449.48409094272364 1339.4642454034208 449.30551951054804Q1338.4721818913338 449.1269480783724 1337.8967850543233 449.1269480783724L1337.8967850543233 449.1269480783724ZM1327.8967848524876 395.5555184256804L1329.3253563098926 411.0515504844776L1329.3253563098926 438.33329706686703L1339.900753348739 438.33329706686703Q1346.3888487177874 438.33329706686703 1351.1904361162876 436.50790020462716Q1355.9721822445465 434.6825033423873 1359.107102942741 431.5872651846762Q1362.2618649111776 428.4721857567234 1363.8293252602746 424.3650428166836Q1365.396785609372 420.25789987664393 1365.396785609372 415.61504264007726L1365.396785609372 415.61504264007726Q1365.396785609372 409.54361394610555 1363.115039531572 405.51583608703277Q1360.8332934537723 401.46821695771825 1357.1824997292927 399.0872645287097Q1353.5317060048128 396.68647082945944 1349.0475789301802 395.734089857856Q1344.5436105853057 394.7618676160109 1340.1785311321235 394.7618676160109L1340.1785311321235 394.7618676160109Q1338.690435863993 394.7618676160109 1337.0436104339287 394.80155015649433Q1335.3967850038646 394.84123269697784 1333.7499595738002 394.900756507703Q1332.1031341437358 394.98012158867 1330.575356335122 395.15869302084565Q1329.0475785265082 395.33726445302125 1327.8967848524876 395.5555184256804L1327.8967848524876 395.5555184256804ZM1436.3888505343098 494.1864727973589L1436.3888505343098 494.1864727973589Q1428.4721837078564 494.1864727973589 1421.924564528083 491.0912346396478Q1415.3967866185512 487.97615521169496 1410.6745643010177 482.5198058952171Q1405.972183253726 477.0436153084974 1403.3531355818163 469.58329769760405Q1400.7539291801488 462.12298008671064 1400.7539291801488 453.47218626131297L1400.7539291801488 453.47218626131297Q1400.7539291801488 444.841233706157 1403.2539292306076 437.4404399059888Q1405.7539292810668 430.0396461058206 1410.3967865176335 424.6626618703097Q1415.0396437542 419.265836364557 1421.6467867446986 416.23012201757115Q1428.2539297351975 413.1944076705853 1436.3888505343098 413.1944076705853L1436.3888505343098 413.1944076705853Q1444.325358631005 413.1944076705853 1450.89281908102 416.23012201757115Q1457.4602795310354 419.265836364557 1462.1825018485688 424.6626618703097Q1466.9047241661024 430.0396461058206 1469.5436131082536 437.4404399059888Q1472.1825020504045 444.841233706157 1472.1825020504045 453.47218626131297L1472.1825020504045 453.47218626131297Q1472.1825020504045 462.12298008671064 1469.6428194594623 469.58329769760405Q1467.1031368685199 477.0436153084974 1462.4602796319534 482.5198058952171Q1457.8174223953865 487.97615521169496 1451.1904381346462 491.0912346396478Q1444.543612603664 494.1864727973589 1436.3888505343098 494.1864727973589ZM1458.6110732050563 455.3967894747615L1458.6110732050563 455.3967894747615Q1458.6110732050563 449.6229798344158 1457.3610731798265 444.0475828964875Q1456.111073154597 438.4721859585592 1453.392819131479 434.08726523513513Q1450.6745651083609 429.68250324146936 1446.3888507361455 426.98409048859304Q1442.1031363639302 424.26583646547493 1436.1110727509254 424.26583646547493L1436.1110727509254 424.26583646547493Q1430.396786921305 424.26583646547493 1426.2499614407818 426.6269476242417Q1422.1031359602587 428.9682175127668 1419.4642470181075 432.8967890206309Q1416.8253580759563 436.82536052849497 1415.575358050727 441.8253606294129Q1414.3253580254973 446.8253607303308 1414.3253580254973 452.1229798848748L1414.3253580254973 452.1229798848748Q1414.3253580254973 457.89678952522047 1415.575358050727 463.4721864631488Q1416.8253580759563 469.0475834010771 1419.503929558591 473.4126628542594Q1422.1825010412256 477.7579010372 1426.4285328729575 480.4364725198346Q1430.6745647046894 483.1150440024692 1436.686469587936 483.1150440024692L1436.686469587936 483.1150440024692Q1442.3213903365893 483.1150440024692 1446.4682158171127 480.7539328437024Q1450.6150412976356 478.4126629551773 1453.333295320754 474.503932717555Q1456.0317080736302 470.6150437501744 1457.3213906393432 465.61504364925645Q1458.6110732050563 460.6150435483386 1458.6110732050563 455.3967894747615ZM1507.18250275683 432.6190112372465L1507.18250275683 480.7539328437024Q1508.5317091332684 481.1904407890206 1510.317423455025 481.5872661938554Q1512.103137776781 481.98409159869016 1514.14678861168 482.222186841591Q1516.1904394465791 482.48012335473356 1518.3332966326868 482.61901224642577Q1520.4761538187943 482.7579011381179 1522.4602808429684 482.7579011381179L1522.4602808429684 482.7579011381179Q1526.8253602961506 482.7579011381179 1530.1388524265208 481.3293296807128Q1533.4721858271325 479.90075822330766 1535.8928207966248 477.51980579429915Q1538.3332970363583 475.11901209504884 1539.9404399259392 471.8650437754039Q1541.54758281552 468.61107545575885 1542.5396463276068 465.0198055420043Q1543.5317098396938 461.40869435800806 1543.9285352445286 457.5396466608692Q1544.3253606493633 453.6904402339721 1544.3253606493633 450.0396465094923L1544.3253606493633 450.0396465094923Q1544.3253606493633 442.89678922246674 1542.976154272925 438.0555192834827Q1541.6071066262452 433.19440807425696 1539.2856780079617 430.19837626775455Q1536.9642493896786 427.1825031910104 1533.9285350426926 425.9126618955392Q1530.8928206957069 424.6229793298262 1527.539646024853 424.6229793298262L1527.539646024853 424.6229793298262Q1521.9047252761995 424.6229793298262 1516.7459950133477 426.8055190564174Q1511.6071060207375 428.9682175127668 1507.18250275683 432.6190112372465L1507.18250275683 432.6190112372465ZM1493.6110739114818 490.4761552621539L1493.6110739114818 391.54758183684936L1492.1825024540765 378.6904387202033L1507.18250275683 377.26186726279815L1507.18250275683 423.4126618450802L1513.253931450802 416.9047252057902Q1516.9047251752816 415.19837596500076 1520.8928204938709 414.18647118267216Q1524.900757082702 413.1944076705853 1528.8888524012912 413.1944076705853L1528.8888524012912 413.1944076705853Q1534.821392203571 413.1944076705853 1540.0793288176314 415.61504264007726Q1545.3174241614502 418.055518879811 1549.2856782097977 422.7975824675864Q1553.2539322581454 427.5396460553617 1555.5753608764285 434.4840906399699Q1557.896789494712 441.4086939543364 1557.896789494712 450.3967893738436L1557.896789494712 450.3967893738436Q1557.896789494712 460.25790068398726 1555.2182180120774 468.33329767237456Q1552.5396465294427 476.4086946607618 1547.7182178607004 482.16266303086576Q1542.896789191958 487.896790130728 1536.2896462014594 491.05155209916427Q1529.6825032109607 494.1864727973589 1521.8253601952326 494.1864727973589L1521.8253601952326 494.1864727973589Q1517.3213918503582 494.1864727973589 1512.9761536674175 493.86901247349107Q1508.6110742142353 493.55155214962326 1504.8213915980634 493.01583785309634Q1501.0317089818916 492.4801235565694 1498.115042256356 491.80552036835036Q1495.1785342605788 491.1110759098895 1493.6110739114818 490.4761552621539L1493.6110739114818 490.4761552621539ZM1626.2499654774986 476.90472641680526L1634.0475846825016 483.7698059204465Q1631.825362415427 486.0515519982464 1629.1864734732756 487.97615521169496Q1626.5475845311246 489.9007584251435 1623.3332987519632 491.28964734206517Q1620.1190129728016 492.69837752922854 1616.2102827351791 493.43250452817284Q1612.3213937677986 494.1864727973589 1607.5396476395397 494.1864727973589L1607.5396476395397 494.1864727973589Q1598.0356791937472 494.1864727973589 1591.32932985204 490.83329812650516Q1584.603139240091 487.4801234556515 1580.357107408359 481.8253614367562Q1576.1110755766274 476.1904406881027 1574.1467898226952 468.90869450938493Q1572.182504068763 461.6269483306672 1572.182504068763 453.6904402339721L1572.182504068763 453.6904402339721Q1572.182504068763 448.6110750520872 1573.1150437701249 443.65075749165277Q1574.0475834714864 438.6904399312183 1575.8928216039678 434.1864715863438Q1577.7579010066913 429.68250324146936 1580.5356788405347 425.83329681457224Q1583.3332979446197 421.9840903876751 1587.0436154798247 419.1864712835901Q1590.7539330150296 416.4086934497468 1595.4364727920797 414.80155056016605Q1600.1190125691298 413.1944076705853 1605.7539333177835 413.1944076705853L1605.7539333177835 413.1944076705853Q1613.4721874418194 413.1944076705853 1619.107108190473 415.69440772104423Q1624.761870209368 418.19440777150317 1628.472187744573 422.69837611637763Q1632.1825052797783 427.1825031910104 1633.9682196015344 433.47218585764125Q1635.753933923291 439.76186852427213 1635.753933923291 447.4007575673412L1635.753933923291 447.4007575673412Q1635.753933923291 449.6229798344158 1635.6150450315988 452.261868776567Q1635.4761561399066 454.90075771871807 1635.1785370862806 457.26186887748486L1635.1785370862806 457.26186887748486L1585.7539329141116 457.26186887748486Q1585.7539329141116 462.61901184275405 1587.2221869120006 467.2618690793207Q1588.690440909889 471.90472631588733 1591.32932985204 475.37694860819147Q1593.9682187941912 478.8293296302538 1597.7182188698796 480.79361538418584Q1601.4682189455682 482.7579011381179 1606.1110761821349 482.7579011381179L1606.1110761821349 482.7579011381179Q1610.6745683377344 482.7579011381179 1614.0674255490715 482.0832979498988Q1617.4602827604087 481.4086947616797 1619.9007590001427 480.4364725198346Q1622.3213939696345 479.48409154823116 1623.86901304849 478.47218676590256Q1625.396790857104 477.48012325381563 1626.2499654774986 476.90472641680526L1626.2499654774986 476.90472641680526ZM1596.111075980299 446.5475829469465L1622.1825050779423 446.5475829469465Q1622.2618701589092 445.75393213727693 1622.2817114291508 444.9801225978492Q1622.3213939696345 444.1864717881797 1622.3213939696345 443.4126622487519L1622.3213939696345 443.4126622487519Q1622.3213939696345 439.3253605789539 1621.3888542682728 435.912662097375Q1620.4761558371529 432.4801223455544 1618.571393893946 429.94043975461193Q1616.6864732209808 427.40075716366954 1613.7499652252038 425.9721857062644Q1610.8332984996682 424.5436142488593 1606.825361910837 424.5436142488593L1606.825361910837 424.5436142488593Q1602.0436157825784 424.5436142488593 1598.6507585712413 426.0912333277148Q1595.257901359904 427.61901113632865 1592.9364727416207 430.0198048355789Q1590.6150441233376 432.4007572645874 1589.2261552064158 435.25790017939767Q1587.8174250192524 438.1150430942079 1587.10313929055 440.6944082256338L1587.10313929055 440.6944082256338L1583.392821755345 448.47218616039504L1596.111075980299 446.5475829469465ZM1691.5475858430575 425.2578999775618L1691.5475858430575 425.2578999775618Q1688.6904429282472 425.2578999775618 1685.8928238241624 426.4086936515826Q1683.115045990319 427.5396460553617 1680.535680858893 429.484090539052Q1677.976156997709 431.40869375250054 1675.6745696496675 433.9682176136847Q1673.3928235718674 436.5475827451106 1671.4682203584189 439.40472565992087L1671.4682203584189 439.40472565992087L1671.4682203584189 492.97615531261283L1657.8967915130704 492.97615531261283L1657.8967915130704 414.4047251553313L1671.4682203584189 412.9761536979262L1671.4682203584189 429.04758259373375L1678.6110776454445 416.54758234143895Q1679.5436173468063 415.9721855044285 1680.9325062637279 415.3769473971764Q1682.3213951806495 414.76186801968254 1684.107109502406 414.3055188041226Q1685.8928238241624 413.8293283183209 1687.9364746590613 413.5118679944531Q1689.9602842237184 413.1944076705853 1692.1031414098263 413.1944076705853L1692.1031414098263 413.1944076705853Q1695.3174271889877 413.1944076705853 1697.4999669155789 413.76980450759567Q1699.68250664217 414.3253600743643 1700.753935235224 414.8412331006495L1700.753935235224 414.8412331006495L1700.0396495065213 426.68647143496696Q1698.9682209134673 426.32932857061564 1696.82536372736 425.7936142740888Q1694.682506541252 425.2578999775618 1691.5475858430575 425.2578999775618ZM1735.7539359416494 425.83329681457224L1735.7539359416494 466.1110754052999Q1735.7539359416494 470.8332977228335 1736.2896502381761 474.00790096151155Q1736.8253645347033 477.18250420018956 1737.8571105872736 479.14678995412163Q1738.8888566398439 481.11107570805365 1740.4364757186997 481.94440905820665Q1741.9642535273135 482.7579011381179 1743.9682218217288 482.7579011381179L1743.9682218217288 482.7579011381179Q1745.5356821708262 482.7579011381179 1746.8253647365389 482.57932970594226Q1748.115047302252 482.40075827376666 1749.0475870036137 482.1229804903823L1749.0475870036137 482.1229804903823Q1750.1190155966676 481.8253614367562 1750.9721902170625 481.46821857240496L1750.9721902170625 481.46821857240496L1755.892825237013 490.11901239780263Q1755.3174284000027 490.694409234813 1754.0674283747733 491.36901242303213Q1752.817428349544 492.0436156112512 1751.1110791087547 492.69837752922854Q1749.404729867965 493.33329817696415 1747.2221901413739 493.7698061222824Q1745.0396504147827 494.1864727973589 1742.5396503643235 494.1864727973589L1742.5396503643235 494.1864727973589Q1736.1110788060007 494.1864727973589 1732.1031422171698 491.8253616385921Q1728.1150468985804 489.484091750067 1725.8928246315056 485.39679008026906Q1723.6904436346729 481.3293296807128 1722.936475365487 475.9325041749601Q1722.1825070963007 470.55551993944914 1722.1825070963007 464.40472616451046L1722.1825070963007 464.40472616451046L1722.1825070963007 425.83329681457224L1711.468221165762 425.83329681457224L1711.468221165762 414.4047251553313L1722.1825070963007 414.4047251553313L1722.1825070963007 399.48408993354445L1735.396793077298 391.54758183684936L1735.396793077298 414.4047251553313L1759.682507853185 414.4047251553313L1758.2539363957796 425.83329681457224L1735.7539359416494 425.83329681457224ZM1807.8174294596408 494.1864727973589L1807.8174294596408 494.1864727973589Q1799.9007626331875 494.1864727973589 1793.353143453414 491.0912346396478Q1786.8253655438823 487.97615521169496 1782.1031432263487 482.5198058952171Q1777.4007621790568 477.0436153084974 1774.7817145071474 469.58329769760405Q1772.18250810548 462.12298008671064 1772.18250810548 453.47218626131297L1772.18250810548 453.47218626131297Q1772.18250810548 444.841233706157 1774.6825081559389 437.4404399059888Q1777.182508206398 430.0396461058206 1781.8253654429643 424.6626618703097Q1786.468222679531 419.265836364557 1793.0753656700297 416.23012201757115Q1799.6825086605284 413.1944076705853 1807.8174294596408 413.1944076705853L1807.8174294596408 413.1944076705853Q1815.7539375563358 413.1944076705853 1822.3213980063513 416.23012201757115Q1828.8888584563663 419.265836364557 1833.6110807738999 424.6626618703097Q1838.3333030914334 430.0396461058206 1840.9721920335849 437.4404399059888Q1843.6110809757358 444.841233706157 1843.6110809757358 453.47218626131297L1843.6110809757358 453.47218626131297Q1843.6110809757358 462.12298008671064 1841.0713983847934 469.58329769760405Q1838.531715793851 477.0436153084974 1833.8888585572843 482.5198058952171Q1829.246001320718 487.97615521169496 1822.6190170599773 491.0912346396478Q1815.972191528995 494.1864727973589 1807.8174294596408 494.1864727973589ZM1830.0396521303871 455.3967894747615L1830.0396521303871 455.3967894747615Q1830.0396521303871 449.6229798344158 1828.7896521051578 444.0475828964875Q1827.5396520799284 438.4721859585592 1824.82139805681 434.08726523513513Q1822.1031440336922 429.68250324146936 1817.8174296614768 426.98409048859304Q1813.5317152892615 424.26583646547493 1807.5396516762564 424.26583646547493L1807.5396516762564 424.26583646547493Q1801.8253658466363 424.26583646547493 1797.6785403661127 426.6269476242417Q1793.53171488559 428.9682175127668 1790.8928259434385 432.8967890206309Q1788.2539370012876 436.82536052849497 1787.0039369760577 441.8253606294129Q1785.7539369508283 446.8253607303308 1785.7539369508283 452.1229798848748L1785.7539369508283 452.1229798848748Q1785.7539369508283 457.89678952522047 1787.0039369760577 463.4721864631488Q1788.2539370012876 469.0475834010771 1790.9325084839222 473.4126628542594Q1793.6110799665564 477.7579010372 1797.8571117982885 480.4364725198346Q1802.1031436300202 483.1150440024692 1808.1150485132669 483.1150440024692L1808.1150485132669 483.1150440024692Q1813.7499692619206 483.1150440024692 1817.8967947424437 480.7539328437024Q1822.0436202229669 478.4126629551773 1824.7618742460852 474.503932717555Q1827.460286998961 470.6150437501744 1828.7499695646745 465.61504364925645Q1830.0396521303871 460.6150435483386 1830.0396521303871 455.3967894747615Z " fill="#ffffff" transform="matrix(0.4746120043002443,0,0,0.47461200430024436,0,85.35106175274495)"/></g></svg>